<?xml version="1.0" standalone="no"?>
<!DOCTYPE svg PUBLIC "-//W3C//DTD SVG 20010904//EN"
 "http://www.w3.org/TR/2001/REC-SVG-20010904/DTD/svg10.dtd">
<svg version="1.0" xmlns="http://www.w3.org/2000/svg"
 width="512.000000pt" height="512.000000pt" viewBox="0 0 512.000000 512.000000"
 preserveAspectRatio="xMidYMid meet">

<g transform="translate(0.000000,512.000000) scale(0.100000,-0.100000)"
fill="#000000" stroke="none">
<path d="M360 5111 c-69 -21 -131 -74 -166 -141 -28 -53 -25 -162 5 -220 14
-26 96 -118 199 -222 l176 -178 -185 -187 c-197 -200 -219 -232 -219 -323 0
-137 116 -252 255 -253 99 -1 129 20 330 222 l179 181 181 -179 c99 -98 194
-185 211 -194 129 -66 278 -22 348 102 25 46 30 66 30 120 -1 99 -22 132 -225
336 l-179 180 181 180 c125 125 188 194 202 225 25 54 27 149 5 201 -22 50
-74 106 -122 132 -55 29 -174 30 -226 3 -19 -10 -117 -100 -217 -199 l-183
-181 -187 185 c-159 157 -196 188 -237 202 -52 18 -113 21 -156 8z"/>
<path d="M2410 5105 c-293 -63 -520 -280 -596 -570 -27 -103 -25 -275 5 -379
77 -274 296 -487 567 -552 91 -22 257 -22 348 0 323 77 562 357 591 693 13
141 -30 321 -106 449 -44 75 -188 219 -261 263 -168 98 -371 133 -548 96z
m310 -181 c198 -56 362 -224 415 -424 19 -72 19 -221 0 -295 -55 -208 -231
-381 -437 -430 -80 -19 -196 -19 -276 0 -206 49 -385 224 -437 430 -19 75 -19
223 0 295 60 228 256 404 489 441 66 10 176 2 246 -17z"/>

</g>
</svg>
